<svg width="360" height="80" viewBox="0 0 360 80" fill="none" xmlns="http://www.w3.org/2000/svg">
<rect width="360" height="80" fill="#11297C"/>
<rect x="24" y="32" width="20" height="2" fill="white"/>
<rect x="24" y="39" width="20" height="2" fill="white"/>
<rect x="24" y="46" width="20" height="2" fill="white"/>
<g clip-path="url(#clip0_3024_110822)">
<path d="M113.095 36.473L128.366 29.0747V34.9934L113.095 42.3917V36.473Z" fill="white"/>
<path d="M113.095 42.5398L128.366 49.9381V44.0194L113.095 36.6211V42.5398Z" fill="#28B2B6"/>
<path d="M148.018 35.8929L142.482 41.6417L148.131 49.5569H143.55L139.897 44.3356L138.351 45.9464V49.5569H134.614V29.4497H138.351V40.9752L143.128 35.8929H148.018Z" fill="white"/>
<path d="M147.453 45.8352C147.453 44.6687 147.837 43.7337 148.605 43.0302C149.373 42.3266 150.366 41.8823 151.584 41.6971L154.984 41.1972C155.677 41.1046 156.024 40.7806 156.024 40.2252C156.024 39.7067 155.818 39.2809 155.405 38.9476C155.012 38.6143 154.441 38.4477 153.691 38.4477C152.904 38.4477 152.277 38.6606 151.809 39.0865C151.359 39.5123 151.106 40.0399 151.05 40.6695L147.734 39.9752C147.865 38.7902 148.455 37.7441 149.504 36.8369C150.553 35.9297 151.94 35.4761 153.663 35.4761C155.724 35.4761 157.241 35.9667 158.216 36.948C159.19 37.9108 159.677 39.1513 159.677 40.6695V47.3904C159.677 48.2051 159.733 48.9271 159.846 49.5567H156.417C156.324 49.1493 156.277 48.6031 156.277 47.918C155.396 49.2697 154.038 49.9454 152.202 49.9454C150.778 49.9454 149.626 49.5382 148.745 48.7234C147.884 47.9088 147.453 46.946 147.453 45.8352ZM152.989 47.196C153.869 47.196 154.591 46.9553 155.153 46.4739C155.733 45.974 156.024 45.1593 156.024 44.0299V43.4189L152.904 43.8911C151.762 44.0577 151.19 44.6317 151.19 45.613C151.19 46.0573 151.349 46.4369 151.668 46.7517C151.986 47.0478 152.427 47.196 152.989 47.196Z" fill="white"/>
<path d="M165.496 49.5569H161.758V29.4497H165.496V49.5569Z" fill="white"/>
<path d="M170.537 41.1694H176.719C176.682 40.4103 176.401 39.7715 175.876 39.2531C175.37 38.7347 174.621 38.4755 173.628 38.4755C172.729 38.4755 171.998 38.7532 171.436 39.3087C170.874 39.8641 170.574 40.4844 170.537 41.1694ZM177.085 44.7242L180.204 45.6407C179.829 46.8998 179.089 47.9366 177.984 48.7512C176.897 49.5659 175.539 49.9733 173.909 49.9733C171.923 49.9733 170.237 49.3159 168.851 48.0014C167.464 46.6683 166.771 44.8909 166.771 42.6691C166.771 40.5584 167.446 38.8365 168.795 37.5035C170.143 36.1519 171.736 35.4761 173.572 35.4761C175.708 35.4761 177.375 36.1056 178.574 37.3646C179.792 38.6236 180.401 40.3547 180.401 42.558C180.401 42.7061 180.391 42.8728 180.373 43.0579C180.373 43.2431 180.373 43.3912 180.373 43.5023L180.344 43.6967H170.453C170.49 44.5854 170.846 45.3259 171.52 45.9184C172.195 46.5109 173.001 46.8072 173.937 46.8072C175.53 46.8072 176.579 46.1129 177.085 44.7242Z" fill="white"/>
<path d="M185.395 49.5567H181.658V35.8927H185.395V49.5567ZM181.208 31.4213C181.208 30.7918 181.433 30.2549 181.883 29.8105C182.332 29.3476 182.876 29.1162 183.513 29.1162C184.15 29.1162 184.693 29.3384 185.142 29.7827C185.592 30.2271 185.817 30.7733 185.817 31.4213C185.817 32.0323 185.592 32.56 185.142 33.0043C184.693 33.4487 184.15 33.6709 183.513 33.6709C182.876 33.6709 182.332 33.4487 181.883 33.0043C181.433 32.56 181.208 32.0323 181.208 31.4213Z" fill="white"/>
<path d="M200.89 29.4497V47.0851C200.89 47.9923 200.928 48.8162 201.003 49.5569H197.434C197.34 49.094 197.293 48.5663 197.293 47.9739C196.975 48.5478 196.469 49.0107 195.776 49.3625C195.101 49.7142 194.315 49.8901 193.415 49.8901C191.448 49.8901 189.828 49.2144 188.554 47.8628C187.299 46.4926 186.671 44.7707 186.671 42.6971C186.671 40.679 187.289 38.9849 188.526 37.6148C189.781 36.2447 191.373 35.5596 193.303 35.5596C195.289 35.5596 196.591 36.1243 197.209 37.2537V29.4497H200.89ZM190.437 42.6971C190.437 43.9005 190.755 44.8541 191.392 45.5577C192.029 46.2427 192.853 46.5852 193.865 46.5852C194.858 46.5852 195.673 46.2335 196.31 45.5298C196.947 44.8263 197.265 43.8728 197.265 42.6693C197.265 41.4843 196.947 40.5586 196.31 39.8921C195.673 39.207 194.858 38.8645 193.865 38.8645C192.872 38.8645 192.048 39.207 191.392 39.8921C190.755 40.5772 190.437 41.5122 190.437 42.6971Z" fill="white"/>
<path d="M206.968 45.5852C207.662 46.2703 208.495 46.6127 209.47 46.6127C210.444 46.6127 211.268 46.2703 211.942 45.5852C212.636 44.9002 212.982 43.9466 212.982 42.7246C212.982 41.5027 212.636 40.5492 211.942 39.8641C211.268 39.179 210.444 38.8365 209.47 38.8365C208.495 38.8365 207.662 39.179 206.968 39.8641C206.294 40.5492 205.957 41.5027 205.957 42.7246C205.957 43.9466 206.294 44.9002 206.968 45.5852ZM204.271 37.5312C205.657 36.1611 207.39 35.4761 209.47 35.4761C211.549 35.4761 213.273 36.1611 214.64 37.5312C216.027 38.9013 216.72 40.6324 216.72 42.7246C216.72 44.8168 216.027 46.548 214.64 47.918C213.273 49.2882 211.549 49.9733 209.47 49.9733C207.39 49.9733 205.657 49.2882 204.271 47.918C202.903 46.548 202.219 44.8168 202.219 42.7246C202.219 40.6324 202.903 38.9013 204.271 37.5312Z" fill="white"/>
<path d="M228.316 39.0586H222.779V49.5566H219.014V39.0586H216.709V35.8926H219.014V34.3373C219.014 32.8006 219.463 31.5694 220.363 30.6436C221.281 29.7179 222.508 29.255 224.044 29.255C224.868 29.255 225.486 29.3476 225.899 29.5327V32.6432C225.581 32.5507 225.187 32.5044 224.719 32.5044C224.212 32.5044 223.764 32.6525 223.37 32.9487C222.976 33.2265 222.779 33.7078 222.779 34.3929V35.8926H232.025V49.5566H228.316V39.0586ZM228.54 33.0043C228.09 32.5599 227.866 32.023 227.866 31.3935C227.866 30.764 228.09 30.227 228.54 29.7827C228.99 29.3198 229.533 29.0884 230.17 29.0884C230.807 29.0884 231.35 29.3198 231.8 29.7827C232.25 30.227 232.475 30.764 232.475 31.3935C232.475 32.023 232.25 32.5599 231.8 33.0043C231.35 33.4301 230.807 33.643 230.17 33.643C229.533 33.643 228.99 33.4301 228.54 33.0043Z" fill="#28B2B6"/>
<path d="M238.092 41.6972V49.5568H234.354V35.8928H237.979V37.5869C238.372 36.9204 238.934 36.4112 239.665 36.0594C240.395 35.7076 241.164 35.5317 241.97 35.5317C243.599 35.5317 244.836 36.0409 245.678 37.0592C246.54 38.059 246.971 39.3551 246.971 40.9473V49.5568H243.234V41.5861C243.234 40.7714 243.018 40.1142 242.588 39.6143C242.176 39.1144 241.538 38.8644 240.676 38.8644C239.889 38.8644 239.263 39.1329 238.794 39.6698C238.326 40.2068 238.092 40.8825 238.092 41.6972Z" fill="#28B2B6"/>
</g>
<defs>
<clipPath id="clip0_3024_110822">
<rect width="134" height="21" fill="white" transform="translate(113 29)"/>
</clipPath>
</defs>
</svg>
