<svg xmlns="http://www.w3.org/2000/svg" width="64" height="24" viewBox="0 0 64 24" fill="none">
  <rect width="64" height="24" rx="4" fill="#0ea5e9"/>
  <text x="10" y="16" fill="#ffffff" font-family="Arial, Helvetica, sans-serif" font-size="12" font-weight="bold">Ki</text>
</svg>
<svg width="256" height="51" viewBox="0 0 256 51" fill="none" xmlns="http://www.w3.org/2000/svg">
<path d="M0 17.7468L36.2035 0V14.1975L0 31.9443V17.7468Z" fill="#0F547E" style="fill:#0F547E;fill:color(display-p3 0.0588 0.3294 0.4941);fill-opacity:1;"/>
<path d="M0 32.2993L36.2035 50.046V35.8486L0 18.1018V32.2993Z" fill="#28B2B6" style="fill:#28B2B6;fill:color(display-p3 0.1569 0.6980 0.7137);fill-opacity:1;"/>
<path d="M82.7907 16.3551L69.6667 30.1452L83.0572 49.1316H72.1983L63.5378 36.6073L59.8736 40.4711V49.1316H51.0134V0.899445H59.8736V28.5464L71.199 16.3551H82.7907Z" fill="#0F547E" style="fill:#0F547E;fill:color(display-p3 0.0588 0.3294 0.4941);fill-opacity:1;"/>
<path d="M93.0896 49.1316H84.2292V16.3551H93.0896V49.1316ZM83.1633 5.6294C83.1633 4.11936 83.6964 2.83141 84.7622 1.7655C85.828 0.655178 87.1161 0.100018 88.6261 0.100018C90.136 0.100018 91.4241 0.632972 92.49 1.69888C93.5558 2.76479 94.0888 4.07495 94.0888 5.6294C94.0888 7.09503 93.5558 8.3608 92.49 9.4267C91.4241 10.4926 90.136 11.0256 88.6261 11.0256C87.1161 11.0256 85.828 10.4926 84.7622 9.4267C83.6964 8.3608 83.1633 7.09503 83.1633 5.6294Z" fill="#0F547E" style="fill:#0F547E;fill:color(display-p3 0.0588 0.3294 0.4941);fill-opacity:1;"/>
<path d="M107.668 40.0049L115.263 38.3395C115.352 39.7608 115.907 40.9597 116.928 41.9369C117.994 42.8696 119.438 43.3358 121.259 43.3358C122.635 43.3358 123.701 43.0251 124.456 42.4034C125.211 41.7814 125.589 41.0042 125.589 40.0715C125.589 38.4282 124.412 37.3624 122.058 36.8738L117.728 35.8745C114.663 35.2084 112.354 34.0091 110.799 32.2772C109.289 30.5449 108.534 28.4798 108.534 26.0814C108.534 23.1059 109.689 20.5744 111.999 18.487C114.353 16.3995 117.284 15.3559 120.792 15.3559C123.013 15.3559 124.967 15.689 126.655 16.3551C128.342 16.9769 129.653 17.7986 130.585 18.8201C131.518 19.7971 132.229 20.7964 132.717 21.8179C133.206 22.8394 133.516 23.8387 133.65 24.8158L126.255 26.4813C126.077 25.3265 125.545 24.305 124.656 23.4168C123.812 22.5285 122.547 22.0844 120.859 22.0844C119.704 22.0844 118.705 22.3953 117.861 23.0171C117.062 23.6388 116.662 24.4161 116.662 25.3487C116.662 26.9475 117.661 27.9247 119.66 28.2799L124.323 29.2791C127.476 29.9456 129.875 31.1669 131.518 32.9433C133.206 34.7198 134.05 36.8517 134.05 39.3388C134.05 42.27 132.939 44.8015 130.718 46.9334C128.498 49.0651 125.367 50.1311 121.325 50.1311C119.016 50.1311 116.951 49.798 115.13 49.1319C113.309 48.4212 111.888 47.533 110.866 46.4669C109.889 45.3567 109.134 44.2685 108.601 43.2027C108.112 42.0924 107.802 41.0266 107.668 40.0049Z" fill="#28B2B6" style="fill:#28B2B6;fill:color(display-p3 0.1569 0.6980 0.7137);fill-opacity:1;"/>
<path d="M151.769 23.55C149.415 23.55 147.439 24.3717 145.84 26.0149C144.241 27.6582 143.442 29.9011 143.442 32.7434C143.442 35.5859 144.241 37.8509 145.84 39.5387C147.483 41.1818 148.482 42.0034 151.836 42.0034C153.923 42.0034 155.589 41.4707 156.832 40.4046C158.076 39.2943 158.92 37.9841 159.364 36.4741L167.158 39.0722C166.359 42.0924 164.627 44.6905 161.962 46.8666C159.297 49.0429 155.922 50.1311 151.836 50.1311C146.95 50.1311 142.842 48.4878 139.511 45.2012C136.225 41.8703 134.581 37.7178 134.581 32.7434C134.581 27.7247 136.203 23.5722 139.445 20.2857C142.731 16.9991 146.773 15.3559 151.569 15.3559C155.744 15.3559 159.164 16.444 161.829 18.6202C164.493 20.752 166.203 23.3501 166.958 26.4148L159.031 29.0794C157.965 25.3931 155.544 23.55 151.769 23.55Z" fill="#28B2B6" style="fill:#28B2B6;fill:color(display-p3 0.1569 0.6980 0.7137);fill-opacity:1;"/>
<path d="M178.145 39.6053C179.788 41.2486 181.765 42.07 184.074 42.07C186.384 42.07 188.338 41.2486 189.937 39.6053C191.58 37.962 192.402 35.6746 192.402 32.7434C192.402 29.8122 191.58 27.525 189.937 25.8817C188.338 24.2384 186.384 23.4168 184.074 23.4168C181.765 23.4168 179.788 24.2384 178.145 25.8817C176.546 27.525 175.747 29.8122 175.747 32.7434C175.747 35.6746 176.546 37.962 178.145 39.6053ZM171.75 20.2857C175.036 16.9991 179.145 15.3559 184.074 15.3559C189.004 15.3559 193.09 16.9991 196.332 20.2857C199.619 23.5722 201.262 27.7247 201.262 32.7434C201.262 37.762 199.619 41.9148 196.332 45.2012C193.09 48.4878 189.004 50.1311 184.074 50.1311C179.145 50.1311 175.036 48.4878 171.75 45.2012C168.508 41.9148 166.886 37.762 166.886 32.7434C166.886 27.7247 168.508 23.5722 171.75 20.2857Z" fill="#28B2B6" style="fill:#28B2B6;fill:color(display-p3 0.1569 0.6980 0.7137);fill-opacity:1;"/>
<path d="M224.245 16.2219V25.1488C223.356 24.9712 222.468 24.8824 221.58 24.8824C219.048 24.8824 217.005 25.6152 215.451 27.0809C213.896 28.5019 213.119 30.8559 213.119 34.1425V49.1319H204.259V16.3551H212.853V21.2183C214.452 17.7985 217.56 16.0886 222.179 16.0886C222.668 16.0886 223.356 16.1331 224.245 16.2219Z" fill="#28B2B6" style="fill:#28B2B6;fill:color(display-p3 0.1569 0.6980 0.7137);fill-opacity:1;"/>
<path d="M232.617 29.0129H247.273C247.184 27.192 246.518 25.6597 245.274 24.4161C244.075 23.1725 242.299 22.5507 239.945 22.5507C237.813 22.5507 236.081 23.2169 234.749 24.5493C233.416 25.8817 232.705 27.3696 232.617 29.0129ZM248.139 37.54L255.534 39.7384C254.645 42.7585 252.891 45.2456 250.271 47.1999C247.695 49.154 244.475 50.1311 240.611 50.1311C235.903 50.1311 231.906 48.5544 228.619 45.4011C225.333 42.2034 223.69 37.9399 223.69 32.6102C223.69 27.5471 225.289 23.4168 228.486 20.219C231.684 16.9769 235.459 15.3559 239.811 15.3559C244.875 15.3559 248.827 16.8659 251.67 19.886C254.557 22.906 256 27.0586 256 32.3437C256 32.6989 255.978 33.0988 255.933 33.5429C255.933 33.987 255.933 34.3422 255.933 34.6088L255.867 35.0752H232.417C232.506 37.2069 233.349 38.9833 234.948 40.4046C236.547 41.8259 238.457 42.5365 240.678 42.5365C244.453 42.5365 246.94 40.8711 248.139 37.54Z" fill="#28B2B6" style="fill:#28B2B6;fill:color(display-p3 0.1569 0.6980 0.7137);fill-opacity:1;"/>
</svg>
