<svg width="44" height="44" viewBox="0 0 44 44" fill="none" xmlns="http://www.w3.org/2000/svg">
<path d="M42.0417 43.9999H19.6464C19.431 43.8028 19.1285 43.6424 19.0208 43.3983C18.8787 43.0752 18.6908 43.0488 18.4009 43.0488C13.5391 43.0546 8.67737 43.0534 3.8156 43.0534C2.19654 43.0534 1.2157 42.0841 1.2157 40.473C1.21456 27.8631 1.21456 15.2544 1.2157 2.64447C1.2157 1.0552 2.19768 0.077806 3.78466 0.0766602C12.7646 0.0766602 21.7445 0.0766602 30.7243 0.0766602C30.9237 0.0766602 31.1265 0.0789518 31.3213 0.115618C32.529 0.347077 33.2738 1.29926 33.275 2.61697C33.2773 8.50656 33.2796 14.3973 33.2669 20.2869C33.2669 20.6283 33.3735 20.783 33.6783 20.9171C36.4592 22.1454 39.2299 23.3978 42.012 24.6261C42.6284 24.8977 42.916 25.324 42.8851 25.9943C42.8656 26.4228 42.8816 26.8513 42.8816 27.281C42.8816 28.3467 42.5986 28.6583 41.5502 28.7546C41.5261 28.7569 41.5055 28.7844 41.4746 28.8061V40.0158C42.649 40.1568 42.8816 40.4272 42.8816 41.6257C42.8816 41.9397 42.8667 42.2559 42.8851 42.5687C42.924 43.2391 42.6926 43.7398 42.0406 43.9965L42.0417 43.9999ZM2.50247 6.39249C2.50247 6.57583 2.50247 6.71562 2.50247 6.85656C2.50247 18.0353 2.50247 29.2141 2.50247 40.3928C2.50247 41.3817 2.88862 41.7655 3.87633 41.7655C8.70945 41.7655 13.5414 41.7655 18.3746 41.7655C18.5281 41.7655 18.6805 41.7655 18.8272 41.7655C18.97 40.7625 19.4501 40.1724 20.2675 39.9952V28.7695C20.1873 28.7569 20.1323 28.7443 20.0773 28.7408C19.2374 28.6893 18.8776 28.3077 18.8741 27.4598C18.8718 26.974 18.8959 26.4858 18.8684 26.0023C18.8283 25.3056 19.1388 24.8943 19.769 24.6158C23.0851 23.1503 26.3977 21.6756 29.6954 20.17C30.4379 19.8308 31.1288 19.6143 31.8771 20.0841C31.8942 20.0955 31.9309 20.0772 31.9618 20.0715V6.39249H2.50247ZM31.9893 5.06104C31.9893 4.25322 31.9893 3.49812 31.9893 2.74416C31.9882 1.74958 31.6078 1.36458 30.6247 1.36458C23.3223 1.36458 16.0199 1.36458 8.71747 1.36458C8.56622 1.36458 8.41383 1.36458 8.25799 1.36458V5.06218H31.9893V5.06104ZM41.5949 27.4277C41.5949 27.0347 41.5662 26.6646 41.6029 26.3002C41.6384 25.9484 41.4837 25.8018 41.1847 25.6688C38.0943 24.2973 34.996 22.9395 31.9309 21.5118C31.1758 21.16 30.5823 21.1588 29.8272 21.5118C26.7357 22.9509 23.611 24.3168 20.5024 25.7181C20.3695 25.7777 20.185 25.9163 20.1758 26.0298C20.1391 26.4927 20.1598 26.9613 20.1598 27.4277H41.5926H41.5949ZM41.5719 41.3691H20.1953V42.6822H41.5719V41.3691ZM35.7454 28.7649V40.0238H37.4767V28.7649H35.7454ZM31.7418 28.7603H30.0048V40.0284H31.7418V28.7603ZM24.2756 28.7603V40.0238H25.9932V28.7603H24.2756ZM6.93341 1.36343C5.82195 1.36343 4.75289 1.3577 3.68268 1.36572C2.94477 1.37031 2.52081 1.79541 2.50477 2.54249C2.49331 3.12801 2.50247 3.71468 2.50133 4.3002C2.50133 4.54999 2.50133 4.79979 2.50133 5.04729H6.93227V1.36343H6.93341ZM34.3841 40.0307V28.7729H33.071V40.0307H34.3841ZM40.1259 40.0307V28.7706H38.8093V40.0307H40.1259ZM22.9304 40.0399V28.7637H21.6161V40.0399H22.9304ZM28.6481 40.0399V28.7741H27.3499V40.0399H28.6481Z" fill="white"/>
<path d="M2.50244 6.39258H31.9618V20.0727C31.9309 20.0773 31.8954 20.0956 31.877 20.0853C31.1288 19.6155 30.4379 19.8321 29.6954 20.1712C26.3977 21.6768 23.085 23.1515 19.769 24.6171C19.1388 24.8955 18.8271 25.308 18.8684 26.0035C18.897 26.4882 18.8718 26.9752 18.8741 27.461C18.8775 28.3089 19.2373 28.6893 20.0772 28.7421C20.1322 28.7455 20.1872 28.7581 20.2674 28.7707V39.9964C19.4501 40.1737 18.97 40.7638 18.8271 41.7667C18.6805 41.7667 18.5281 41.7667 18.3745 41.7667C13.5414 41.7667 8.70942 41.7667 3.8763 41.7667C2.88859 41.7667 2.50244 41.3829 2.50244 40.394C2.50244 29.2153 2.50244 18.0365 2.50244 6.85779C2.50244 6.71685 2.50244 6.57706 2.50244 6.39372V6.39258ZM18.8913 14.8374C18.8913 11.1031 15.8674 8.06664 12.1389 8.05747C8.39661 8.04945 5.3315 11.1031 5.3315 14.8385C5.3315 18.5613 8.37369 21.6058 12.0977 21.6127C15.856 21.6196 18.8913 18.5934 18.8913 14.8362V14.8374ZM7.63234 33.7597C7.67244 34.2592 7.5315 34.9135 8.23734 34.9559C9.08755 35.0075 8.89046 34.2489 8.95463 33.7471C9.2365 33.715 9.48171 33.7138 9.71317 33.6577C10.8292 33.385 11.3827 32.4293 11.2383 31.0498C11.1374 30.0838 10.3136 29.3356 9.28005 29.2989C8.66588 29.2772 8.05057 29.3047 7.43755 29.2863C6.85088 29.268 6.61025 28.9689 6.61827 28.3227C6.6263 27.7177 6.88411 27.4438 7.46734 27.437C7.96692 27.4312 8.46765 27.4347 8.96723 27.4358C9.69484 27.4358 9.80942 27.5286 9.979 28.2436C10.0661 28.6091 10.3548 28.8372 10.6825 28.7971C11.0206 28.757 11.2417 28.4865 11.2474 28.1061C11.26 27.2697 10.6642 26.4756 9.8163 26.2361C9.54702 26.1605 9.26057 26.1467 8.95807 26.1009C8.88932 25.6208 9.08755 24.9058 8.30265 24.9024C7.5063 24.8989 7.68848 25.6311 7.62546 26.1181C7.3539 26.1467 7.12244 26.1467 6.90359 26.1972C5.83682 26.4458 5.25359 27.351 5.33265 28.616C5.39911 29.6828 6.14046 30.4768 7.2038 30.5536C7.87182 30.6017 8.54671 30.5605 9.21703 30.5857C9.76588 30.6063 9.97213 30.8928 9.96296 31.5585C9.95494 32.136 9.72005 32.4122 9.19411 32.4236C8.65098 32.4362 8.10786 32.4282 7.56473 32.4271C6.91734 32.4248 6.73286 32.2724 6.60911 31.641C6.53234 31.2514 6.23442 31.0131 5.88952 31.067C5.54005 31.122 5.31432 31.4256 5.3338 31.8163C5.37275 32.6345 5.94911 33.3838 6.75234 33.6176C7.02161 33.6955 7.30921 33.7092 7.6289 33.7585L7.63234 33.7597ZM11.5339 38.272C13.263 38.272 14.992 38.272 16.7211 38.272C16.8781 38.272 17.0373 38.2788 17.1909 38.2525C17.4945 38.1998 17.671 38.005 17.6996 37.7002C17.7294 37.3782 17.5896 37.1387 17.2768 37.039C17.1313 36.9932 16.9686 36.9875 16.8128 36.9875C13.2836 36.9852 9.75442 36.9852 6.22411 36.9875C6.08317 36.9875 5.93536 36.9921 5.8013 37.0299C5.48619 37.1192 5.32234 37.3553 5.34525 37.6715C5.36702 37.9832 5.54692 38.2055 5.87577 38.2536C6.03046 38.2765 6.18973 38.2708 6.34671 38.272C8.07577 38.272 9.80484 38.272 11.5339 38.272ZM24.7087 17.7501C25.9095 17.7501 27.1104 17.7512 28.3123 17.7501C28.8497 17.7501 29.1545 17.514 29.1568 17.1107C29.1591 16.7074 28.8509 16.4656 28.3181 16.4656C25.9015 16.4645 23.4849 16.4645 21.0684 16.4656C20.5413 16.4656 20.2376 16.7165 20.2503 17.1267C20.2617 17.5209 20.5528 17.7489 21.0627 17.7512C22.2784 17.7547 23.493 17.7512 24.7087 17.7512V17.7501ZM24.6709 11.2337C25.9004 11.2337 27.1298 11.236 28.3593 11.2337C28.8589 11.2326 29.1568 10.9862 29.1557 10.5932C29.1545 10.2025 28.8509 9.95039 28.3547 9.94924C25.9244 9.94581 23.4941 9.94695 21.0627 9.94924C20.5528 9.94924 20.2629 10.1807 20.2491 10.5749C20.2354 10.9828 20.5402 11.2326 21.0661 11.2337C22.2669 11.236 23.4678 11.2337 24.6686 11.2337H24.6709ZM15.0413 32.1589C15.6841 32.1589 16.3258 32.1635 16.9686 32.1578C17.4315 32.1532 17.7134 31.9 17.7099 31.5115C17.7065 31.1265 17.4235 30.8767 16.9583 30.8745C15.6875 30.8699 14.418 30.8687 13.1472 30.8745C12.6832 30.8767 12.4036 31.1311 12.407 31.5218C12.4105 31.9103 12.69 32.1532 13.1575 32.1578C13.7855 32.1635 14.4134 32.1589 15.0413 32.1589ZM15.0596 26.6887C15.7013 26.6887 16.3441 26.6956 16.9858 26.6864C17.4395 26.6796 17.6962 26.4504 17.7065 26.07C17.718 25.6792 17.443 25.41 16.9812 25.4065C15.6967 25.3974 14.4134 25.3974 13.1289 25.4065C12.6671 25.41 12.3956 25.6804 12.4082 26.0734C12.4208 26.4527 12.6774 26.6796 13.1323 26.6853C13.774 26.6945 14.4168 26.6876 15.0585 26.6876L15.0596 26.6887ZM15.0401 29.4192C15.6818 29.4192 16.3246 29.4238 16.9663 29.4181C17.4361 29.4147 17.7111 29.1717 17.7088 28.7787C17.7065 28.4075 17.4349 28.1405 17.0018 28.1371C15.7036 28.1267 14.4042 28.1267 13.106 28.1371C12.674 28.1405 12.4059 28.4109 12.4082 28.7856C12.4105 29.166 12.674 29.4112 13.114 29.417C13.7557 29.425 14.3985 29.4192 15.0401 29.4192ZM15.0413 33.6096C14.4134 33.6096 13.7855 33.605 13.1575 33.6107C12.6843 33.6153 12.4105 33.8513 12.407 34.2421C12.4036 34.6305 12.6832 34.8906 13.1461 34.8929C14.4157 34.8998 15.6864 34.8998 16.956 34.8929C17.42 34.8906 17.7054 34.6362 17.7077 34.2524C17.7111 33.8616 17.4338 33.6141 16.9663 33.6096C16.3246 33.6038 15.6818 33.6084 15.0401 33.6084L15.0413 33.6096ZM26.6325 14.4879C27.2181 14.4879 27.8024 14.4913 28.388 14.4879C28.8566 14.4845 29.1454 14.245 29.1557 13.8657C29.1671 13.4876 28.8715 13.2091 28.4189 13.2057C27.2204 13.1977 26.0218 13.1977 24.8233 13.2057C24.3672 13.2091 24.0911 13.483 24.106 13.876C24.1197 14.2484 24.3902 14.4822 24.8336 14.4879C25.4329 14.4948 26.0321 14.489 26.6314 14.489L26.6325 14.4879ZM21.7593 14.4867C22.0446 14.4867 22.3311 14.4959 22.6164 14.4845C23.0037 14.4684 23.2489 14.2324 23.2649 13.8829C23.2821 13.5116 23.0404 13.224 22.6428 13.2103C22.0572 13.1897 21.4706 13.1897 20.8862 13.2103C20.4932 13.224 20.2354 13.5208 20.2514 13.8783C20.2674 14.2186 20.5253 14.4684 20.9022 14.4856C21.1875 14.4982 21.474 14.4879 21.7593 14.4879V14.4867Z" fill="#11297C"/>
<path d="M41.5948 27.4279H20.162C20.162 26.9604 20.1402 26.4929 20.178 26.03C20.1872 25.9165 20.3705 25.7779 20.5046 25.7183C23.6132 24.3169 26.7379 22.9511 29.8294 21.5119C30.5845 21.1602 31.178 21.1613 31.9331 21.5119C34.9982 22.9396 38.0954 24.2975 41.1869 25.669C41.4848 25.8019 41.6406 25.9486 41.6051 26.3004C41.5685 26.6647 41.5971 27.036 41.5971 27.4279H41.5948ZM30.8778 26.5914C32.0237 26.5914 32.9472 25.6736 32.9529 24.5289C32.9587 23.3579 32.0374 22.4297 30.871 22.432C29.7217 22.4343 28.805 23.3441 28.7947 24.4945C28.7844 25.6587 29.7125 26.5926 30.879 26.5914H30.8778Z" fill="#11297C"/>
<path d="M41.572 41.3691V42.6823H20.1953V41.3691H41.572Z" fill="#11297C"/>
<path d="M18.8926 14.8383C18.8926 18.5955 15.8572 21.6217 12.0989 21.6148C8.37495 21.6079 5.33391 18.5623 5.33276 14.8406C5.33276 11.1041 8.39672 8.05042 12.1402 8.05959C15.8687 8.06761 18.8937 11.1041 18.8926 14.8395V14.8383ZM9.69037 17.4703C8.02662 15.7779 8.37953 13.555 9.57578 12.3427C10.8752 11.0273 13.0041 10.9196 14.4055 12.1078C16.0142 13.4714 16.0669 15.378 14.5682 17.4829C15.03 17.9 15.4894 18.3148 15.9501 18.7319C17.4946 17.4188 18.0481 14.8635 17.2219 12.7999C16.3419 10.6022 14.1282 9.20542 11.7586 9.35324C9.44745 9.49761 7.44683 11.1442 6.81433 13.4003C6.21391 15.5453 7.13058 17.8244 8.30506 18.7158C8.76224 18.3045 9.21599 17.8966 9.69037 17.4703ZM9.85078 14.8166C9.84276 16.0907 10.8534 17.1185 12.1184 17.1208C13.3525 17.1231 14.3883 16.0999 14.4032 14.8635C14.4181 13.6089 13.388 12.5719 12.123 12.5684C10.8683 12.565 9.85995 13.563 9.85193 14.8166H9.85078ZM9.33745 19.5546C11.086 20.587 13.6148 20.5641 14.8707 19.5191C14.213 18.8281 13.5782 18.1441 12.4747 18.3732C12.2433 18.4214 11.9843 18.4191 11.7529 18.3721C10.646 18.1464 10.0204 18.8396 9.33745 19.5546Z" fill="white"/>
<path d="M7.63345 33.7609C7.31376 33.7117 7.02615 33.6991 6.75688 33.62C5.95365 33.3862 5.3773 32.6369 5.33834 31.8187C5.32001 31.4269 5.54459 31.1232 5.89407 31.0694C6.23782 31.0155 6.53688 31.2539 6.61365 31.6434C6.7374 32.2736 6.92188 32.426 7.56928 32.4295C8.1124 32.4318 8.65553 32.4386 9.19865 32.426C9.72459 32.4146 9.95949 32.1384 9.96751 31.5609C9.97667 30.8952 9.77042 30.6076 9.22157 30.5881C8.55126 30.5629 7.87636 30.6042 7.20834 30.556C6.14501 30.4793 5.40365 29.6852 5.3372 28.6184C5.25813 27.3546 5.84136 26.4482 6.90813 26.1996C7.12699 26.148 7.35844 26.148 7.63001 26.1205C7.69188 25.6335 7.51084 24.9025 8.30719 24.9048C9.09094 24.9082 8.89386 25.6232 8.96261 26.1033C9.26511 26.1492 9.55157 26.1629 9.82084 26.2385C10.6688 26.478 11.2646 27.2721 11.252 28.1085C11.2463 28.4878 11.0251 28.7582 10.6871 28.7995C10.3594 28.8384 10.0706 28.6116 9.98355 28.246C9.81397 27.531 9.69824 27.4382 8.97178 27.4382C8.4722 27.4382 7.97147 27.4336 7.47188 27.4394C6.88865 27.4462 6.63084 27.719 6.62282 28.3251C6.6148 28.9725 6.85542 29.2716 7.44209 29.2887C8.05626 29.3071 8.67157 29.2796 9.28459 29.3014C10.3193 29.3392 11.142 30.0862 11.2428 31.0522C11.3872 32.4318 10.8338 33.3862 9.71772 33.6601C9.48626 33.7174 9.2399 33.7185 8.95917 33.7495C8.89501 34.2514 9.09209 35.0087 8.24188 34.9583C7.53605 34.9159 7.67699 34.2617 7.63688 33.7621L7.63345 33.7609Z" fill="white"/>
<path d="M11.5338 38.273C9.80478 38.273 8.07572 38.273 6.34665 38.273C6.18967 38.273 6.0304 38.2787 5.87572 38.2547C5.54686 38.2054 5.36697 37.9843 5.3452 37.6726C5.32342 37.3563 5.48613 37.1215 5.80124 37.0309C5.9353 36.9931 6.08311 36.9885 6.22405 36.9885C9.75322 36.9862 13.2824 36.9862 16.8127 36.9885C16.9674 36.9885 17.1312 36.9931 17.2768 37.0401C17.5896 37.1398 17.7294 37.3781 17.6996 37.7012C17.6709 38.006 17.4945 38.2008 17.1908 38.2535C17.0373 38.2799 16.878 38.273 16.721 38.273C14.992 38.2742 13.2629 38.273 11.5338 38.273Z" fill="white"/>
<path d="M24.7088 17.7523C23.4931 17.7523 22.2785 17.7546 21.0628 17.7523C20.5529 17.7511 20.263 17.5231 20.2504 17.1278C20.2378 16.7176 20.5414 16.4678 21.0685 16.4667C23.4851 16.4644 25.9016 16.4655 28.3182 16.4667C28.8499 16.4667 29.1592 16.7084 29.1569 17.1118C29.1546 17.5151 28.8499 17.75 28.3125 17.7511C27.1116 17.7534 25.9108 17.7511 24.7088 17.7511V17.7523Z" fill="white"/>
<path d="M24.6709 11.2359C23.4701 11.2359 22.2692 11.2382 21.0684 11.2359C20.5425 11.2359 20.2377 10.985 20.2514 10.5771C20.264 10.1817 20.5551 9.95143 21.065 9.95143C23.4953 9.94913 25.9256 9.94913 28.357 9.95143C28.852 9.95143 29.1557 10.2047 29.158 10.5954C29.1591 10.9884 28.8601 11.2348 28.3616 11.2359C27.1322 11.2393 25.9027 11.2359 24.6732 11.2359H24.6709Z" fill="white"/>
<path d="M15.0413 32.1613C14.4134 32.1613 13.7855 32.1659 13.1575 32.1602C12.69 32.1556 12.4105 31.9127 12.407 31.5243C12.4036 31.1335 12.6832 30.8791 13.1472 30.8769C14.418 30.8711 15.6875 30.8711 16.9583 30.8769C17.4235 30.8791 17.7076 31.1289 17.7099 31.5139C17.7134 31.9024 17.4315 32.1556 16.9686 32.1602C16.3258 32.1671 15.6841 32.1613 15.0413 32.1613Z" fill="white"/>
<path d="M15.0585 26.6912C14.4169 26.6912 13.774 26.6981 13.1324 26.6889C12.6775 26.6821 12.4208 26.4552 12.4082 26.0771C12.3945 25.6841 12.666 25.4136 13.1289 25.4102C14.4134 25.401 15.6968 25.401 16.9812 25.4102C17.443 25.4136 17.718 25.6829 17.7065 26.0736C17.6951 26.4529 17.4396 26.6832 16.9858 26.6901C16.3442 26.6993 15.7013 26.6924 15.0597 26.6924L15.0585 26.6912Z" fill="white"/>
<path d="M15.039 29.4227C14.3973 29.4227 13.7545 29.4285 13.1128 29.4204C12.6728 29.4147 12.4093 29.1707 12.407 28.7891C12.4047 28.4144 12.6728 28.144 13.1048 28.1405C14.403 28.1302 15.7024 28.1302 17.0006 28.1405C17.4338 28.144 17.7065 28.411 17.7076 28.7822C17.7099 29.1741 17.4349 29.417 16.9651 29.4216C16.3235 29.4273 15.6806 29.4227 15.039 29.4227Z" fill="white"/>
<path d="M15.0401 33.6131C15.6818 33.6131 16.3246 33.6085 16.9663 33.6142C17.4338 33.6188 17.7111 33.8651 17.7076 34.257C17.7042 34.6409 17.42 34.8953 16.956 34.8975C15.6864 34.9033 14.4157 34.9044 13.1461 34.8975C12.6832 34.8953 12.4036 34.6351 12.407 34.2467C12.4105 33.856 12.6832 33.6188 13.1575 33.6154C13.7855 33.6096 14.4134 33.6142 15.0413 33.6142L15.0401 33.6131Z" fill="white"/>
<path d="M26.6315 14.4925C26.0322 14.4925 25.4329 14.4971 24.8336 14.4913C24.3902 14.4867 24.1198 14.2518 24.106 13.8795C24.0911 13.4864 24.3673 13.2126 24.8233 13.2091C26.0219 13.2011 27.2204 13.2011 28.419 13.2091C28.8716 13.2114 29.166 13.491 29.1557 13.8691C29.1443 14.2496 28.8555 14.4879 28.388 14.4913C27.8025 14.4959 27.2181 14.4913 26.6326 14.4913L26.6315 14.4925Z" fill="white"/>
<path d="M21.7582 14.4913C21.4729 14.4913 21.1865 14.5016 20.9012 14.489C20.5253 14.4718 20.2664 14.222 20.2503 13.8817C20.2331 13.5242 20.4921 13.2275 20.8851 13.2137C21.4706 13.1931 22.0573 13.1931 22.6417 13.2137C23.0393 13.2275 23.281 13.5162 23.2639 13.8863C23.2478 14.2358 23.0026 14.4718 22.6153 14.4879C22.33 14.5005 22.0435 14.4902 21.7582 14.4902V14.4913Z" fill="white"/>
<path d="M30.879 26.5915C29.7126 26.5915 28.7845 25.6588 28.7948 24.4946C28.8051 23.3454 29.7217 22.4344 30.871 22.4321C32.0386 22.4298 32.9599 23.358 32.953 24.529C32.9473 25.6737 32.0249 26.5904 30.8779 26.5915H30.879ZM31.6651 24.5198C31.6697 24.0787 31.3339 23.7327 30.8939 23.7235C30.4482 23.7143 30.101 24.0409 30.0873 24.4832C30.0724 24.9415 30.423 25.3036 30.879 25.3024C31.3167 25.3013 31.6616 24.9576 31.6651 24.5198Z" fill="white"/>
<path d="M31.6652 24.5197C31.6606 24.9585 31.3157 25.3011 30.8791 25.3023C30.4231 25.3034 30.0725 24.9414 30.0874 24.483C30.1011 24.0407 30.4483 23.7142 30.894 23.7233C31.3352 23.7325 31.6698 24.0774 31.6652 24.5197Z" fill="#11297C"/>
</svg>
