<svg width="47" height="47" viewBox="0 0 47 47" fill="none" xmlns="http://www.w3.org/2000/svg">
<path d="M13.4489 36.0248C13.4219 35.3822 13.3718 34.72 13.3718 34.0579C13.3693 32.687 14.3277 31.7311 15.7046 31.7128C16.4488 31.703 17.1917 31.7115 17.9861 31.7115V31.0763C17.9861 24.5392 17.9861 18.002 17.9861 11.4648C17.9861 11.2666 17.9824 11.0658 18.0081 10.87C18.1036 10.1332 18.658 9.62645 19.3985 9.60442C19.9481 9.5885 20.4977 9.59462 21.0472 9.58973C21.0741 9.58973 21.1011 9.56525 21.1623 9.5371C21.0497 8.83944 21.4744 8.51999 22.0802 8.36699C22.4866 8.26418 22.7656 8.06345 22.8244 7.62405C22.8305 7.57999 22.8525 7.53593 22.877 7.49798C23.2785 6.87988 23.2871 6.27647 22.8844 5.64124C22.6824 5.32423 22.7901 4.99621 23.0594 4.72939C23.5257 4.26673 23.9982 3.8102 24.4498 3.33408C24.7815 2.98403 25.1756 2.8653 25.5538 3.14314C26.44 3.79551 27.1315 3.08194 27.8732 2.83593C28.0483 2.77718 28.1168 2.37205 28.2172 2.11869C28.4742 1.47366 28.6137 1.37207 29.3028 1.37085C29.883 1.37085 30.4631 1.38186 31.0433 1.36718C31.5169 1.35616 31.8915 1.53486 31.9649 2.00608C32.1326 3.08561 33.1191 3.07949 33.8155 3.44301C33.9441 3.51033 34.2097 3.34142 34.4018 3.25819C35.2904 2.87142 35.332 2.87632 36.0272 3.57153C36.3944 3.93871 36.7555 4.31202 37.13 4.67186C37.458 4.98642 37.5939 5.36585 37.3173 5.73548C36.6588 6.61429 37.3675 7.31439 37.5964 8.0659C37.6416 8.21278 37.9684 8.30212 38.1814 8.36455C38.7714 8.53957 39.1802 8.83822 39.0627 9.59952C39.6196 9.59952 40.1312 9.61543 40.6416 9.59585C41.1838 9.57504 41.6085 9.77455 41.9855 10.1576C43.1862 11.3755 44.3954 12.586 45.6133 13.7867C46.0098 14.1771 46.18 14.6202 46.18 15.1759C46.1726 24.7986 46.1751 34.4202 46.1739 44.0429C46.1739 45.1396 45.6096 45.7038 44.508 45.7051C39.163 45.7063 33.818 45.7026 28.473 45.7087C27.8365 45.7087 27.2698 45.5435 26.7325 45.1188C26.0275 45.7626 25.1524 45.71 24.2797 45.7075C21.4854 45.7002 18.6899 45.7014 15.8956 45.7075C15.3154 45.7087 14.7793 45.601 14.2885 45.2706C14.1967 45.2094 13.9935 45.2081 13.903 45.2706C13.4134 45.6023 12.8773 45.71 12.2971 45.7087C9.27395 45.7026 6.24955 45.7075 3.22638 45.7051C1.64502 45.7051 0.725829 44.781 0.723381 43.2008C0.720933 41.7052 0.735621 41.644 1.29497 40.775C0.514084 39.917 0.673199 38.8448 0.761324 37.824C0.858017 36.7077 1.83351 35.9061 2.96934 35.9036C6.16143 35.895 9.35229 35.8963 12.5444 35.9061C12.8589 35.9061 13.1747 35.9881 13.4489 36.026V36.0248ZM39.0798 11.0903C39.1177 11.6215 38.9831 12.0633 38.4152 12.1955C37.8118 12.3363 37.4177 12.6631 37.3136 13.2947C37.3063 13.3387 37.2904 13.3864 37.2634 13.4219C36.9183 13.8711 36.9807 14.3179 37.2634 14.7671C37.2953 14.8185 37.3099 14.8797 37.3381 14.9335C37.5413 15.3276 37.4629 15.6618 37.1484 15.9666C36.6882 16.4133 36.2316 16.8637 35.7886 17.3276C35.4581 17.674 35.0958 17.7645 34.6809 17.5185C34.1595 17.2089 33.6919 17.2309 33.1093 17.4757C32.5059 17.729 32.1191 18.0375 31.9661 18.6715C31.8572 19.1219 31.5182 19.2957 31.069 19.2908C30.5035 19.2847 29.9393 19.2908 29.3738 19.2896C28.599 19.2884 28.4877 19.2064 28.1964 18.4744C28.1021 18.237 28.0262 17.8612 27.8585 17.8062C27.1119 17.5626 26.4069 16.8698 25.5318 17.5259C25.205 17.7707 24.8354 17.7033 24.5343 17.4023C24.0373 16.9053 23.5098 16.4353 23.0594 15.8992C22.8954 15.7034 22.7693 15.2628 22.8758 15.0877C23.3238 14.3546 23.2308 13.6912 22.8158 13.0107C22.7999 12.985 22.7938 12.9532 22.7889 12.9238C22.7363 12.5994 22.538 12.4367 22.2271 12.3461C21.5992 12.1649 21.0129 11.9275 21.1659 11.1001H19.4891V31.6834C21.7424 31.7997 23.9663 31.5634 26.1842 31.8303C26.1156 31.6026 26.0434 31.3603 25.9663 31.102C25.4069 31.102 24.8733 31.1081 24.3409 31.1008C23.7815 31.0935 23.4645 30.8364 23.4498 30.3933C23.4352 29.9331 23.7607 29.648 24.3384 29.6382C24.8855 29.6284 25.4314 29.6357 25.9749 29.6357C26.0177 29.4778 26.0495 29.3615 26.0826 29.244C26.3629 28.2294 27.1743 27.5611 28.2147 27.5574C31.4521 27.5452 34.6894 27.5415 37.9268 27.5599C38.8925 27.566 39.6391 28.0629 39.9231 28.9687C40.2646 30.058 40.3209 31.1889 39.6869 32.2415C39.6306 32.3358 39.5963 32.5206 39.6489 32.5904C40.2866 33.4459 40.1569 34.4275 40.07 35.3749C40.0308 35.8032 39.6073 36.2096 39.6085 36.6257C39.6085 37.0431 40.0345 37.4495 40.0736 37.8791C40.1654 38.8888 40.2915 39.9366 39.6612 40.6428C39.8386 41.3368 40.0345 41.879 40.1018 42.4371C40.1716 43.016 40.1177 43.6109 40.1177 44.2082H44.6855V15.3876C43.7186 15.3876 42.7749 15.3876 41.8325 15.3876C40.7174 15.3876 40.3906 15.0596 40.3894 13.9421C40.3894 12.9997 40.3894 12.0572 40.3894 11.0903H39.081H39.0798ZM35.813 15.1269C35.7506 14.9813 35.6992 14.8185 35.6148 14.6753C35.3479 14.2212 35.3712 13.8038 35.649 13.3473C35.8681 12.9874 36.0591 12.5848 36.1472 12.176C36.272 11.5946 36.5743 11.2335 37.1423 11.1282C37.6906 11.0267 37.5878 10.635 37.6184 10.2592C37.649 9.86634 37.5462 9.62033 37.1374 9.53343C36.5695 9.41225 36.2696 9.05975 36.1472 8.4796C36.064 8.08548 35.8877 7.69015 35.6711 7.34866C35.3626 6.86397 35.3528 6.41968 35.6331 5.93744C35.7151 5.79546 35.8473 5.56046 35.7935 5.48457C35.5829 5.19205 35.3284 4.91788 35.0432 4.69879C34.955 4.63147 34.6956 4.72572 34.5499 4.80772C34.031 5.10392 33.561 5.07944 33.053 4.75142C32.7262 4.5409 32.3407 4.38301 31.9612 4.301C31.3823 4.17738 31.0151 3.86895 30.916 3.30225C30.8181 2.74168 30.4215 2.86163 30.0519 2.82736C29.6578 2.79064 29.4166 2.89712 29.331 3.30593C29.2122 3.87384 28.8573 4.17616 28.2833 4.30468C27.8891 4.3928 27.4914 4.55804 27.1499 4.77468C26.6664 5.08189 26.2062 5.1235 25.7423 4.81262C25.3568 4.55436 25.1254 4.7147 24.8537 4.99866C24.5783 5.28751 24.3115 5.51762 24.6126 5.95457C24.9321 6.41968 24.8684 6.88111 24.5649 7.3609C24.3568 7.69015 24.1854 8.0708 24.1096 8.45145C23.9847 9.07077 23.6469 9.43429 23.0496 9.55423C22.4817 9.66806 22.6702 10.0989 22.6286 10.4465C22.5869 10.799 22.6787 11.0205 23.0631 11.1001C23.6628 11.2237 23.9872 11.6007 24.112 12.2151C24.1891 12.5945 24.3605 12.9764 24.5698 13.3044C24.8782 13.7867 24.9112 14.2395 24.6102 14.7132C24.3898 15.0571 24.4535 15.3044 24.7631 15.5688C25.063 15.8258 25.2784 16.1673 25.7472 15.8429C26.2086 15.5247 26.6713 15.5712 27.1523 15.8821C27.4791 16.0938 27.861 16.2652 28.2416 16.3411C28.8597 16.4647 29.2269 16.7964 29.3469 17.3949C29.4387 17.8514 29.7581 17.8294 30.1045 17.8245C30.457 17.8196 30.8046 17.882 30.9001 17.3851C31.0163 16.7829 31.4007 16.4561 32.0151 16.3386C32.3517 16.275 32.6968 16.1318 32.9808 15.9396C33.5414 15.5614 34.0665 15.5492 34.6405 15.8907C34.9293 16.062 35.8106 15.4708 35.813 15.122V15.1269ZM7.77216 44.2388H11.7549C13.3069 44.2388 13.3705 44.1751 13.3656 42.6084C13.3632 41.7774 13.1049 41.5179 12.2665 41.5179C10.4196 41.5155 8.57385 41.5179 6.7269 41.5179C5.5825 41.5179 4.43809 41.5167 3.29369 41.5179C2.44549 41.5191 2.19213 41.7713 2.18968 42.6011C2.18968 42.7994 2.18968 42.9977 2.18968 43.196C2.19336 43.9695 2.45895 44.2363 3.23984 44.2375C4.7502 44.24 6.26179 44.2375 7.77216 44.2375V44.2388ZM20.4267 44.2388H24.4094C25.9381 44.2388 26.0116 44.1665 26.0079 42.6403C26.0055 41.7737 25.7558 41.5179 24.8929 41.5179C22.6653 41.5167 20.4365 41.5179 18.2089 41.5179C17.3851 41.5179 16.5602 41.5081 15.7365 41.5216C15.1294 41.5314 14.8442 41.8325 14.8332 42.4322C14.8283 42.6917 14.8307 42.9512 14.8332 43.2106C14.8368 43.9622 15.1037 44.2363 15.8491 44.2375C17.3753 44.2412 18.9016 44.2375 20.4267 44.2375V44.2388ZM20.4303 35.8938C21.9713 35.8938 23.5123 35.8975 25.0544 35.8914C25.7093 35.8889 25.9969 35.5903 26.0079 34.9342C26.0116 34.7054 26.0091 34.4765 26.0079 34.2476C26.0042 33.4459 25.7399 33.1791 24.9345 33.1779C23.0875 33.1766 21.2418 33.1779 19.3949 33.1779C18.1893 33.1779 16.9837 33.173 15.7781 33.1803C15.1171 33.184 14.8393 33.474 14.8307 34.1374C14.8283 34.381 14.8295 34.6258 14.8307 34.8706C14.8344 35.6209 15.1012 35.8926 15.8503 35.8938C17.3766 35.8963 18.9016 35.8938 20.4279 35.8938H20.4303ZM33.0542 35.8938C34.3822 35.8938 35.709 35.8938 37.037 35.8938C38.5865 35.8938 38.6575 35.8228 38.6502 34.2647C38.6465 33.4373 38.3858 33.1791 37.5462 33.1779C34.5548 33.1779 31.5647 33.1779 28.5733 33.1779C28.4815 33.1779 28.3897 33.1742 28.2992 33.1803C27.779 33.217 27.4938 33.5095 27.4767 34.0297C27.4681 34.3039 27.473 34.5793 27.4742 34.8535C27.4779 35.6331 27.7361 35.8926 28.5219 35.8938C30.0323 35.8963 31.5427 35.8938 33.0542 35.8938ZM33.0628 44.2388H37.0456C38.5792 44.2388 38.6539 44.1641 38.6502 42.6452C38.6477 41.7774 38.3956 41.5191 37.5376 41.5179C35.4312 41.5167 33.326 41.5179 31.2195 41.5179C30.2734 41.5179 29.3273 41.5093 28.3812 41.5216C27.7716 41.5301 27.4877 41.8288 27.4754 42.4273C27.4705 42.6709 27.4742 42.9157 27.4754 43.1592C27.4779 43.9927 27.7251 44.2363 28.577 44.2375C30.0727 44.2375 31.5684 44.2375 33.0628 44.2375V44.2388ZM33.1191 29.0201C31.5475 29.0201 29.976 29.0164 28.4056 29.0213C27.7582 29.0237 27.4852 29.2979 27.4754 29.9344C27.4718 30.2085 27.4718 30.4839 27.4754 30.7581C27.4828 31.4288 27.7484 31.703 28.4167 31.7079C29.3163 31.7152 30.2171 31.7103 31.1167 31.7103C33.2672 31.7103 35.4189 31.7103 37.5694 31.7103C38.4042 31.7103 38.6477 31.4594 38.6502 30.61C38.6502 30.4117 38.6526 30.2134 38.6502 30.0151C38.6428 29.2955 38.3723 29.0225 37.6502 29.0213C36.1398 29.0176 34.6295 29.0213 33.1191 29.0213V29.0201ZM20.423 37.365C18.8514 37.365 17.2799 37.3613 15.7095 37.3675C15.1294 37.3699 14.8454 37.6612 14.8332 38.2426C14.8258 38.5633 14.8246 38.8839 14.8332 39.2034C14.8479 39.7358 15.1294 40.0455 15.6483 40.0467C18.8221 40.0541 21.9946 40.0541 25.1683 40.0467C25.686 40.0467 25.981 39.7395 26.0042 39.2181C26.0177 38.9133 26.0116 38.6073 26.0067 38.3026C25.9957 37.6465 25.7129 37.3675 25.0459 37.3662C23.5049 37.3626 21.964 37.3662 20.423 37.3662V37.365ZM33.1167 37.365C31.5304 37.365 29.9429 37.3613 28.3567 37.3675C27.7704 37.3699 27.4877 37.6551 27.4754 38.2352C27.4681 38.5559 27.4681 38.8766 27.4754 39.1961C27.4901 39.7517 27.7704 40.0467 28.3261 40.0479C31.4839 40.0541 34.6417 40.0541 37.7995 40.0479C38.3209 40.0479 38.6171 39.7481 38.6441 39.2267C38.66 38.9219 38.6526 38.6159 38.6477 38.3111C38.6367 37.6502 38.3552 37.3687 37.693 37.3662C36.168 37.3626 34.6417 37.3662 33.1167 37.3662V37.365ZM7.77705 37.365C6.2214 37.365 4.66453 37.3613 3.10888 37.3662C2.47487 37.3687 2.19825 37.6539 2.18968 38.2928C2.18601 38.5975 2.18112 38.9035 2.19091 39.2083C2.20804 39.7346 2.49567 40.0443 3.01341 40.0455C6.18713 40.0528 9.35963 40.0528 12.5334 40.0455C13.0499 40.0455 13.3412 39.7346 13.362 39.212C13.373 38.9231 13.3669 38.6318 13.3644 38.343C13.3583 37.6441 13.089 37.3675 12.3987 37.3662C10.8578 37.3626 9.31679 37.3662 7.77583 37.3662L7.77705 37.365ZM41.8765 13.8907H43.4297C42.9267 13.3877 42.3784 12.8418 41.8765 12.34V13.8907Z" fill="white"/>
<path d="M39.0797 11.0913H40.3881C40.3881 12.0582 40.3881 13.0007 40.3881 13.9431C40.3881 15.0594 40.7161 15.3874 41.8312 15.3886C42.7736 15.3886 43.7173 15.3886 44.6842 15.3886V44.2116H40.1164C40.1164 43.6143 40.1715 43.0207 40.1005 42.4406C40.0332 41.8824 39.8361 41.3402 39.6599 40.6462C40.2902 39.94 40.1641 38.8923 40.0723 37.8825C40.0332 37.4529 39.6084 37.0466 39.6072 36.6292C39.6072 36.2131 40.0295 35.8067 40.0687 35.3783C40.1556 34.4322 40.2853 33.4494 39.6476 32.5938C39.595 32.524 39.6292 32.3392 39.6856 32.245C40.3196 31.1924 40.2633 30.0627 39.9218 28.9721C39.6378 28.0664 38.8912 27.5682 37.9255 27.5633C34.6881 27.545 31.4508 27.5474 28.2134 27.5609C27.173 27.5646 26.3615 28.2328 26.0813 29.2475C26.0494 29.3638 26.0176 29.4813 25.9735 29.6392C25.4301 29.6392 24.8842 29.6318 24.3371 29.6416C23.7606 29.6514 23.4338 29.9366 23.4485 30.3968C23.4632 30.8399 23.7802 31.0969 24.3396 31.1043C24.8732 31.1116 25.4056 31.1055 25.965 31.1055C26.0421 31.3637 26.1143 31.6061 26.1828 31.8337C23.965 31.5669 21.7411 31.8019 19.4878 31.6869V11.1023H21.1646C21.0116 11.9297 21.5991 12.1672 22.2258 12.3483C22.5367 12.4377 22.7362 12.6004 22.7876 12.926C22.7925 12.9554 22.7998 12.9884 22.8145 13.0129C23.2294 13.6934 23.3225 14.3568 22.8745 15.09C22.7668 15.265 22.8928 15.7056 23.0581 15.9015C23.5085 16.4376 24.036 16.9076 24.5329 17.4045C24.834 17.7044 25.2037 17.7729 25.5305 17.5281C26.4056 16.8721 27.1118 17.5648 27.8572 17.8084C28.0249 17.8635 28.1008 18.2392 28.195 18.4767C28.4863 19.2086 28.5965 19.2906 29.3725 19.2918C29.9379 19.2918 30.5022 19.2869 31.0677 19.2931C31.5169 19.2979 31.8571 19.1241 31.9648 18.6737C32.1178 18.0397 32.5046 17.7313 33.108 17.4779C33.6906 17.2331 34.1582 17.2111 34.6796 17.5208C35.0945 17.768 35.4568 17.6774 35.7872 17.3298C36.2291 16.8659 36.6869 16.4143 37.1471 15.9688C37.4616 15.664 37.54 15.3287 37.3368 14.9358C37.3086 14.8819 37.2939 14.8195 37.2621 14.7693C36.9794 14.3201 36.917 13.8734 37.2621 13.4242C37.289 13.3899 37.305 13.3409 37.3123 13.2969C37.4163 12.6653 37.8104 12.3385 38.4139 12.1978C38.9818 12.0656 39.1164 11.6237 39.0785 11.0925L39.0797 11.0913ZM32.0799 20.3236C30.1118 20.3236 28.1436 20.3236 26.1767 20.3236C25.5366 20.3236 24.8952 20.3187 24.2551 20.3261C23.7692 20.3322 23.4681 20.5978 23.451 21.0164C23.4326 21.4509 23.741 21.7569 24.2343 21.7875C24.3408 21.7948 24.4473 21.7899 24.555 21.7899C29.5732 21.7899 34.5927 21.7899 39.6109 21.7875C39.8214 21.7875 40.0858 21.8181 40.2302 21.7091C40.4358 21.5537 40.6745 21.2832 40.677 21.0592C40.6806 20.8328 40.4469 20.566 40.2522 20.3885C40.1458 20.2906 39.9034 20.3261 39.7223 20.3261C37.1752 20.3224 34.6269 20.3236 32.0799 20.3236ZM32.0982 24.982C29.594 24.982 27.0886 24.982 24.5844 24.982C24.4167 24.982 24.2465 24.9771 24.0813 24.9979C23.7153 25.0432 23.4987 25.2684 23.4571 25.6246C23.413 26.004 23.5917 26.2819 23.9614 26.3932C24.1315 26.4446 24.3224 26.4459 24.5036 26.4459C29.5585 26.4483 34.6135 26.4483 39.6684 26.4459C39.8496 26.4459 40.0393 26.4422 40.2106 26.392C40.5644 26.288 40.7271 26.0199 40.7039 25.6601C40.6806 25.2966 40.475 25.0665 40.1139 25.0028C39.9499 24.9734 39.7786 24.9832 39.6109 24.982C37.1067 24.982 34.6012 24.982 32.097 24.982H32.0982Z" fill="#11297C"/>
<path d="M35.8131 15.1271C35.8106 15.4759 34.9294 16.0683 34.6405 15.8957C34.0653 15.5543 33.5414 15.5653 32.9808 15.9447C32.6969 16.1369 32.3517 16.2801 32.0151 16.3437C31.3995 16.4612 31.0164 16.788 30.9001 17.3902C30.8034 17.8871 30.457 17.8259 30.1045 17.8296C29.7581 17.8345 29.4399 17.8565 29.3469 17.4C29.2257 16.8015 28.8598 16.4686 28.2417 16.3462C27.8622 16.2703 27.4804 16.0989 27.1523 15.8872C26.6713 15.5751 26.2087 15.5286 25.7472 15.848C25.2785 16.1724 25.0618 15.8297 24.7632 15.5738C24.4535 15.3082 24.3899 15.0622 24.6102 14.7183C24.9125 14.2459 24.8782 13.7918 24.5698 13.3095C24.3593 12.9815 24.1891 12.6009 24.112 12.2202C23.9872 11.6058 23.6628 11.2288 23.0631 11.1052C22.6788 11.0256 22.587 10.8029 22.6286 10.4516C22.6702 10.104 22.4817 9.67314 23.0496 9.55932C23.6457 9.43937 23.9847 9.07585 24.1096 8.45653C24.1855 8.07588 24.3568 7.69645 24.5649 7.36598C24.8684 6.88619 24.9321 6.42476 24.6126 5.95965C24.3115 5.52148 24.5784 5.29137 24.8537 5.00374C25.1255 4.71978 25.3568 4.55945 25.7423 4.8177C26.2062 5.12859 26.6664 5.08697 27.1499 4.77976C27.4914 4.56312 27.8879 4.39788 28.2833 4.30976C28.8585 4.18124 29.2123 3.88015 29.331 3.31101C29.4167 2.90221 29.6578 2.79572 30.0519 2.83244C30.4215 2.86671 30.8193 2.74676 30.916 3.30734C31.0152 3.87525 31.3823 4.18247 31.9613 4.30609C32.3419 4.38809 32.7262 4.54598 33.053 4.7565C33.5622 5.08452 34.0322 5.109 34.5499 4.81281C34.6956 4.72958 34.9551 4.63656 35.0432 4.70387C35.3284 4.92296 35.583 5.1959 35.7935 5.48965C35.8473 5.56432 35.7152 5.80054 35.6331 5.94252C35.3529 6.42598 35.3639 6.86906 35.6711 7.35374C35.889 7.69523 36.064 8.09057 36.1472 8.48468C36.2696 9.06361 36.5695 9.41734 37.1374 9.53851C37.5462 9.62541 37.649 9.87142 37.6184 10.2643C37.589 10.6401 37.6918 11.0317 37.1423 11.1333C36.5744 11.2386 36.272 11.5984 36.1472 12.181C36.0591 12.5898 35.8694 12.9925 35.6491 13.3524C35.37 13.8089 35.348 14.2263 35.6148 14.6804C35.6992 14.8236 35.7494 14.9863 35.8131 15.132V15.1271ZM25.5159 10.2704C25.4633 12.7538 27.484 14.8713 29.9601 14.93C32.5304 14.99 34.6625 13.0084 34.7237 10.503C34.7874 7.88249 32.8144 5.7932 30.2159 5.72833C27.6627 5.66468 25.571 7.68544 25.5171 10.2704H25.5159Z" fill="#11297C"/>
<path d="M41.8765 13.8906V12.3398C42.3783 12.8404 42.9254 13.3876 43.4297 13.8906H41.8765Z" fill="#11297C"/>
<path d="M32.0788 20.3227C34.6258 20.3227 37.1741 20.3227 39.7212 20.3251C39.9023 20.3251 40.1434 20.2896 40.2511 20.3875C40.4457 20.565 40.6795 20.8318 40.6758 21.0583C40.6722 21.2823 40.4347 21.5527 40.2291 21.7082C40.0847 21.8171 39.8203 21.7865 39.6098 21.7865C34.5915 21.7902 29.5721 21.789 24.5539 21.789C24.4474 21.789 24.3397 21.7926 24.2332 21.7865C23.7399 21.7547 23.4303 21.4499 23.4499 21.0154C23.4682 20.5968 23.7681 20.3312 24.254 20.3251C24.8941 20.3178 25.5355 20.3227 26.1756 20.3227C28.1437 20.3227 30.1119 20.3227 32.0788 20.3227Z" fill="white"/>
<path d="M32.0984 24.9811C34.6026 24.9811 37.1081 24.9811 39.6123 24.9811C39.78 24.9811 39.9513 24.9726 40.1153 25.002C40.4752 25.0656 40.682 25.2957 40.7053 25.6592C40.7285 26.0191 40.5657 26.2871 40.212 26.3911C40.0407 26.4413 39.8509 26.445 39.6698 26.445C34.6149 26.4474 29.5599 26.4474 24.505 26.445C24.3238 26.445 24.1341 26.4438 23.9627 26.3924C23.5931 26.281 23.4144 26.0031 23.4585 25.6237C23.5001 25.2675 23.7167 25.0423 24.0827 24.9971C24.2479 24.9762 24.4181 24.9811 24.5857 24.9811C27.09 24.9811 29.5954 24.9811 32.0996 24.9811H32.0984Z" fill="white"/>
<path d="M25.5159 10.2717C25.5697 7.68665 27.6615 5.66468 30.2146 5.72955C32.8131 5.79442 34.7861 7.88371 34.7225 10.5042C34.6625 13.0096 32.5291 14.9912 29.9588 14.9313C27.4828 14.8737 25.4632 12.7563 25.5146 10.2717H25.5159ZM30.1057 13.4674C31.8535 13.4735 33.2549 12.0868 33.2598 10.3463C33.266 8.5985 31.8853 7.20441 30.1375 7.19218C28.3983 7.18116 26.9919 8.57035 26.9797 10.3133C26.9675 12.0488 28.3665 13.4613 30.1057 13.4662V13.4674Z" fill="white"/>
</svg>
