<svg width="249" height="80" viewBox="0 0 249 80" fill="none" xmlns="http://www.w3.org/2000/svg">
<path d="M0 33.4874L34.7483 16.4539V30.0807L0 47.1142V33.4874Z" fill="#0F547E"/>
<path d="M0 47.4549L34.7483 64.4884V50.8616L0 33.8281V47.4549Z" fill="#28B2B6"/>
<path d="M79.4627 31.5408L66.8663 44.7767L79.7185 63H69.2961L60.9837 50.979L57.4669 54.6876V63H48.9627V16.7064H57.4669V43.2421L68.3369 31.5408H79.4627ZM89.3477 63H80.8435V31.5408H89.3477V63ZM79.8204 21.2463C79.8204 18.305 82.1862 15.9391 85.0636 15.9391C88.0049 15.9391 90.3068 18.305 90.3068 21.2463C90.3068 24.0597 88.0049 26.4255 85.0636 26.4255C82.1862 26.4255 79.8204 24.0597 79.8204 21.2463Z" fill="#0F547E"/>
<path d="M103.892 54.24L111.181 52.6415C111.373 55.1352 113.227 57.4371 116.936 57.4371C119.749 57.4371 121.092 55.9664 121.092 54.304C121.092 52.8973 120.133 51.7463 117.703 51.2348L113.547 50.2757C107.473 48.9329 104.723 45.2882 104.723 40.8763C104.723 35.2494 109.711 30.5817 116.488 30.5817C125.44 30.5817 128.445 36.2725 128.829 39.6614L121.731 41.2599C121.476 39.4056 120.133 37.0398 116.552 37.0398C114.314 37.0398 112.524 38.3826 112.524 40.1729C112.524 41.7075 113.675 42.6666 115.401 42.9863L119.877 43.9455C126.079 45.2243 129.213 48.9968 129.213 53.6006C129.213 58.7159 125.248 63.9591 117 63.9591C107.536 63.9591 104.275 57.8207 103.892 54.24ZM146.22 38.4465C141.872 38.4465 138.227 41.5796 138.227 47.2704C138.227 52.9612 141.936 56.1583 146.284 56.1583C150.632 56.1583 152.806 53.2809 153.509 50.8511L160.99 53.3448C159.584 58.588 154.66 63.9591 146.284 63.9591C137.012 63.9591 129.723 56.9256 129.723 47.2704C129.723 37.5513 136.885 30.5817 146.028 30.5817C154.596 30.5817 159.456 35.8888 160.799 41.196L153.19 43.7536C152.422 41.132 150.44 38.4465 146.22 38.4465ZM177.227 56.2222C181.383 56.2222 185.219 53.217 185.219 47.2704C185.219 41.3239 181.383 38.3186 177.227 38.3186C173.07 38.3186 169.234 41.3239 169.234 47.2704C169.234 53.153 173.07 56.2222 177.227 56.2222ZM177.227 30.5817C186.626 30.5817 193.723 37.5513 193.723 47.2704C193.723 56.9256 186.626 63.9591 177.227 63.9591C167.827 63.9591 160.73 56.9256 160.73 47.2704C160.73 37.5513 167.827 30.5817 177.227 30.5817ZM215.782 31.4129V39.9811C214.823 39.7893 213.992 39.7253 213.225 39.7253C208.877 39.7253 205.104 41.8354 205.104 48.6132V63H196.6V31.5408H204.848V36.2086C206.767 32.0524 211.115 31.2851 213.8 31.2851C214.503 31.2851 215.143 31.349 215.782 31.4129ZM223.818 43.6897H237.885C237.757 40.5566 235.711 37.4874 230.851 37.4874C226.439 37.4874 224.01 40.8123 223.818 43.6897ZM238.716 51.8742L245.814 53.9843C244.215 59.4193 239.228 63.9591 231.491 63.9591C222.859 63.9591 215.25 57.7568 215.25 47.1425C215.25 37.1037 222.667 30.5817 230.724 30.5817C240.443 30.5817 246.261 36.784 246.261 46.8868C246.261 48.1016 246.133 49.3805 246.133 49.5084H223.626C223.818 53.6645 227.335 56.6698 231.555 56.6698C235.519 56.6698 237.693 54.6876 238.716 51.8742Z" fill="#28B2B6"/>
</svg>
